<svg width="254" height="82" viewBox="0 0 254 82" fill="none" xmlns="http://www.w3.org/2000/svg">
<g clip-path="url(#clip0_17_46)">
<path d="M35.401 8.699L54.981 20.004L27.865 35.659L35.4 40.01L70.05 20.005L35.401 0L0.751999 20.004L8.286 24.354L35.401 8.699Z" fill="#16A34A"/>
<path d="M34.649 10.871L9.03799 25.657V55.229L16.569 50.878V30.008L34.649 19.57V10.871Z" fill="#16A34A"/>
<path d="M36.154 10.871V19.57L44.442 24.355L51.975 20.006L36.154 10.871Z" fill="#16A34A"/>
<path d="M7.534 25.657L0 21.308V61.317L34.649 81.321V72.622L7.534 56.968V25.657Z" fill="#16A34A"/>
<path d="M36.154 81.321L70.803 61.317V52.618L36.154 72.622V81.321Z" fill="#16A34A"/>
<path d="M62.516 46.965L35.4 62.619L17.322 52.182L9.787 56.532L35.401 71.319L70.05 51.314L62.516 46.965Z" fill="#16A34A"/>
<path d="M34.649 41.3119L27.113 36.9609V45.6599L34.649 50.0109V41.3119Z" fill="#16A34A"/>
<path d="M36.154 50.011L70.803 30.006V21.307L36.154 41.312V50.011Z" fill="#16A34A"/>
</g>
<path d="M93.8 59.35C91.2333 59.35 88.9333 58.9333 86.9 58.1C84.8667 57.2667 83.2333 56.0333 82 54.4C80.8 52.7667 80.1667 50.8 80.1 48.5H89.2C89.3333 49.8 89.7833 50.8 90.55 51.5C91.3167 52.1667 92.3167 52.5 93.55 52.5C94.8167 52.5 95.8167 52.2167 96.55 51.65C97.2833 51.05 97.65 50.2333 97.65 49.2C97.65 48.3333 97.35 47.6167 96.75 47.05C96.1833 46.4833 95.4667 46.0167 94.6 45.65C93.7667 45.2833 92.5667 44.8667 91 44.4C88.7333 43.7 86.8833 43 85.45 42.3C84.0167 41.6 82.7833 40.5667 81.75 39.2C80.7167 37.8333 80.2 36.05 80.2 33.85C80.2 30.5833 81.3833 28.0333 83.75 26.2C86.1167 24.3333 89.2 23.4 93 23.4C96.8667 23.4 99.9833 24.3333 102.35 26.2C104.717 28.0333 105.983 30.6 106.15 33.9H96.9C96.8333 32.7667 96.4167 31.8833 95.65 31.25C94.8833 30.5833 93.9 30.25 92.7 30.25C91.6667 30.25 90.8333 30.5333 90.2 31.1C89.5667 31.6333 89.25 32.4167 89.25 33.45C89.25 34.5833 89.7833 35.4667 90.85 36.1C91.9167 36.7333 93.5833 37.4167 95.85 38.15C98.1167 38.9167 99.95 39.65 101.35 40.35C102.783 41.05 104.017 42.0667 105.05 43.4C106.083 44.7333 106.6 46.45 106.6 48.55C106.6 50.55 106.083 52.3667 105.05 54C104.05 55.6333 102.583 56.9333 100.65 57.9C98.7167 58.8667 96.4333 59.35 93.8 59.35ZM129.762 59L122.462 45.75H120.412V59H111.862V23.9H126.212C128.978 23.9 131.328 24.3833 133.262 25.35C135.228 26.3167 136.695 27.65 137.662 29.35C138.628 31.0167 139.112 32.8833 139.112 34.95C139.112 37.2833 138.445 39.3667 137.112 41.2C135.812 43.0333 133.878 44.3333 131.312 45.1L139.412 59H129.762ZM120.412 39.7H125.712C127.278 39.7 128.445 39.3167 129.212 38.55C130.012 37.7833 130.412 36.7 130.412 35.3C130.412 33.9667 130.012 32.9167 129.212 32.15C128.445 31.3833 127.278 31 125.712 31H120.412V39.7ZM153.029 30.75V37.85H164.479V44.45H153.029V52.15H165.979V59H144.479V23.9H165.979V30.75H153.029ZM194.38 23.9V30.75H180.08V38.15H190.78V44.8H180.08V59H171.53V23.9H194.38ZM207.423 52.4H218.623V59H198.873V23.9H207.423V52.4ZM252.802 23.9L240.652 47.4V59H232.102V47.4L219.952 23.9H229.652L236.452 38.6L243.202 23.9H252.802Z" fill="#313231"/>
<defs>
<clipPath id="clip0_17_46">
<rect width="70.803" height="81.321" fill="white"/>
</clipPath>
</defs>
</svg>
