<svg width="71" height="82" viewBox="0 0 71 82" fill="none" xmlns="http://www.w3.org/2000/svg">
<g clip-path="url(#clip0_17_30)">
<path d="M35.401 8.699L54.981 20.004L27.865 35.659L35.4 40.01L70.05 20.005L35.401 0L0.751999 20.004L8.286 24.354L35.401 8.699Z" fill="#16A34A"/>
<path d="M34.649 10.871L9.03799 25.657V55.229L16.569 50.878V30.008L34.649 19.57V10.871Z" fill="#16A34A"/>
<path d="M36.154 10.871V19.57L44.442 24.355L51.975 20.006L36.154 10.871Z" fill="#16A34A"/>
<path d="M7.534 25.657L0 21.308V61.317L34.649 81.321V72.622L7.534 56.968V25.657Z" fill="#16A34A"/>
<path d="M36.154 81.321L70.803 61.317V52.618L36.154 72.622V81.321Z" fill="#16A34A"/>
<path d="M62.516 46.965L35.4 62.619L17.322 52.182L9.787 56.532L35.401 71.319L70.05 51.314L62.516 46.965Z" fill="#16A34A"/>
<path d="M34.649 41.3119L27.113 36.9609V45.6599L34.649 50.0109V41.3119Z" fill="#16A34A"/>
<path d="M36.154 50.011L70.803 30.006V21.307L36.154 41.312V50.011Z" fill="#16A34A"/>
</g>
<defs>
<clipPath id="clip0_17_30">
<rect width="70.803" height="81.321" fill="white"/>
</clipPath>
</defs>
</svg>
